<svg width="1069" height="266" viewBox="0 0 1069 266" fill="none" xmlns="http://www.w3.org/2000/svg">
<path d="M346 111C346 116.2 344.467 121.533 341.4 127C338.333 132.467 333.4 136.2 326.6 138.2C335.267 139.533 341.867 143.467 346.4 150C350.933 156.533 353.2 163.533 353.2 171C353.2 182.333 349.533 192 342.2 200C334.867 207.867 323.4 211.8 307.8 211.8H247.4V74H303.8C316.6 74 326.8 77.4 334.4 84.2C342.133 91 346 99.9333 346 111ZM281 127.2H299C302.467 127.2 305.267 126.2 307.4 124.2C309.533 122.067 310.6 119.267 310.6 115.8C310.6 107.4 306.867 103.2 299.4 103.2H281V127.2ZM302.2 154.6H281V182.6H302.4C307.333 182.6 311.133 181.2 313.8 178.4C316.467 175.6 317.8 172.267 317.8 168.4C317.8 164.8 316.467 161.6 313.8 158.8C311.267 156 307.4 154.6 302.2 154.6Z" fill="white"/>
<path d="M467.311 211.8H376.111V74H465.511V103.2H409.511V129.6H458.711V158.2H409.511V182.6H467.311V211.8Z" fill="white"/>
<path d="M517.922 103.2H482.322V74H586.922V103.2H551.322V211.8H517.922V103.2Z" fill="white"/>
<path d="M641.552 211.8H607.752V74H696.352V103.2H641.552V129.6H684.952V158.4H641.552V211.8Z" fill="white"/>
<path d="M784.336 211.8H750.736V149.8L696.936 74H736.736L767.336 124L798.536 74H838.136L784.336 150.4V211.8Z" fill="white"/>
<path d="M882.753 211.8H849.353V74H906.353C921.553 74 933.22 78.5333 941.353 87.6C949.486 96.6667 953.553 107.467 953.553 120C953.553 130.4 950.686 139.733 944.953 148C939.353 156.133 931.22 161.533 920.553 164.2L954.153 211.8H915.353L885.753 165.8H882.753V211.8ZM904.753 103.2H882.753V137H904.753C909.82 137 913.553 135.333 915.953 132C918.486 128.667 919.753 124.667 919.753 120C919.753 115.333 918.486 111.4 915.953 108.2C913.553 104.867 909.82 103.2 904.753 103.2Z" fill="white"/>
<path d="M1068.87 211.8H977.673V74H1067.07V103.2H1011.07V129.6H1060.27V158.2H1011.07V182.6H1068.87V211.8Z" fill="white"/>
<path d="M44.6124 266C44.6124 266 0 236.771 0 179.519C0 122.268 74.7012 73.15 74.7012 26.4465C74.7012 14.6914 66.2751 0 66.2751 0C66.2751 0 131.672 36.1658 117.159 106.349C116.627 108.927 118.098 111.505 120.6 112.303C120.641 112.313 120.682 112.334 120.723 112.344C123.236 113.142 125.963 111.914 126.974 109.469C129.149 104.19 131.508 93.1205 127.638 72.5464C128.24 72.5464 189 117.142 189 188.256C189 243.093 142.069 266 142.069 266C142.069 266 151.731 244.29 128.25 218.059C127.954 217.455 130.058 229.21 121.632 237.354C121.632 237.057 124.941 201.475 80.9927 171.928C80.9927 171.928 93.3306 202.078 65.3355 227.41C65.0393 226.806 69.2472 213.844 59.0133 208.718C59.0133 208.718 61.1173 217.465 53.2938 228.617C45.4703 239.768 42.8352 254.245 44.6022 266H44.6124Z" fill="#E32D47"/>
</svg>
